<svg fill="#000000" xmlns="http://www.w3.org/2000/svg"  viewBox="0 0 80 80" width="80px" height="80px"><path d="M 34.826172 8.0019531 A 1.0001 1.0001 0 0 0 34.515625 8.0683594 C 34.515625 8.0683594 33.065833 8.6684003 31.789062 10.40625 C 30.512293 12.1441 29.310547 15.046724 29.310547 19.660156 C 29.310547 19.846069 29.327679 20.012154 29.339844 20.183594 C 28.381267 18.89867 27.293155 16.988026 26.929688 14.501953 C 26.73327 13.159314 26.796257 11.968938 26.931641 11.023438 A 1.0001 1.0001 0 0 0 25.953125 9.8828125 A 1.0001 1.0001 0 0 0 25.189453 10.222656 C 23.774049 11.837281 21.563805 14.790521 20.277344 19.064453 C 19.762346 20.77661 19.514408 22.335307 19.388672 23.742188 C 19.367552 23.697688 19.342996 23.688058 19.322266 23.642578 C 18.696176 22.269893 18.518606 21.029064 18.46875 20.230469 A 1.0001 1.0001 0 0 0 16.632812 19.748047 C 16.068562 20.616124 12.219184 26.72125 14.642578 33.792969 C 15.387447 35.966125 16.481393 37.512125 17.556641 38.736328 C 16.540554 38.500599 15.404255 38.122286 14.269531 37.349609 C 13.023352 36.501012 12.208268 35.517092 11.707031 34.787109 A 1.0001 1.0001 0 0 0 9.9277344 35.056641 C 9.6527507 35.941744 8.2465324 40.703238 10.962891 45.275391 C 11.937847 46.91643 13.081618 47.907505 14.080078 48.640625 C 13.569638 49.251165 13.086441 49.882992 12.175781 50.544922 C 10.851319 51.508084 9.5796664 52.011148 8.7070312 52.279297 A 1.0001 1.0001 0 0 0 8.4023438 54.037109 C 9.7272326 55.025198 12.561293 56.842109 16.474609 57.056641 C 16.474609 57.056641 17.801928 56.989111 19.474609 56.734375 C 18.766864 57.721214 18.048981 58.930465 17.478516 60.404297 C 16.139906 63.864676 16.295763 66.904024 16.476562 68.412109 A 1.0001 1.0001 0 0 0 17.664062 69.275391 C 19.278727 68.954541 21.32936 68.37995 23.550781 67.3125 C 25.758318 66.250948 27.365042 65.042204 28.710938 63.894531 C 28.747228 65.528443 28.930186 67.39468 29.705078 69.570312 C 30.285708 71.199039 31.019261 72.527198 31.695312 73.550781 A 1.0001 1.0001 0 0 0 33.111328 73.814453 C 34.449143 72.858571 36.334 71.276179 38.048828 68.875 C 38.894183 67.691283 39.527118 66.54275 40.015625 65.492188 C 40.416409 66.371967 40.937347 67.31658 41.646484 68.269531 C 44.492704 72.095545 48.31975 73.473263 49.822266 73.927734 A 1.0001 1.0001 0 0 0 51.054688 72.634766 C 51.054688 72.634766 50.172141 70.158455 49.546875 67.255859 C 49.234242 65.804561 48.989391 64.250063 48.947266 62.890625 C 48.906696 61.581341 49.103868 60.509087 49.435547 59.878906 C 49.528607 59.797046 49.695948 59.680227 50.113281 59.605469 C 50.58467 59.521029 51.252134 59.501911 52.029297 59.546875 C 53.583622 59.636795 55.571731 59.963778 57.585938 60.251953 C 59.250659 60.490127 59.58463 61.20443 59.779297 62 C 59.973964 62.79557 59.802734 63.599609 59.802734 63.599609 A 1.0001 1.0001 0 0 0 61.351562 64.648438 C 61.351562 64.648438 63.367323 63.228667 65.189453 61.306641 C 66.100518 60.345627 66.976636 59.258476 67.541016 58.078125 C 68.105119 56.898353 68.367133 55.52376 67.771484 54.265625 L 67.771484 54.263672 C 67.209887 53.079022 66.154382 52.289316 64.960938 51.773438 C 64.517391 51.58171 64.043951 51.432599 63.558594 51.300781 C 63.530365 50.393471 63.502445 49.485722 63.474609 48.578125 C 63.087077 49.391943 62.699453 50.206009 62.3125 51.019531 C 61.875422 50.940916 61.4329 50.871722 60.982422 50.820312 C 60.111068 50.720873 59.22716 50.674546 58.353516 50.646484 C 58.652648 49.449376 58.951163 48.252092 59.25 47.054688 C 58.10693 48.24338 56.965101 49.432401 55.822266 50.621094 C 54.861824 50.630393 53.883886 50.646484 53.158203 50.646484 C 52.373019 50.646484 51.854833 50.421962 51.404297 50.041016 C 50.953761 49.66007 50.582018 49.085735 50.302734 48.392578 C 49.744167 47.006265 49.589844 45.189895 49.589844 44.029297 C 49.589844 43.12513 50.1445 41.288344 51.109375 39.851562 C 52.07425 38.414781 53.346922 37.414062 54.681641 37.414062 C 55.305179 37.414062 55.866644 37.66576 56.554688 38.171875 C 57.204571 38.649921 57.92986 39.349321 58.763672 40.087891 L 59.25 45.554688 C 59.90155 44.347053 60.551834 43.137825 61.203125 41.929688 C 61.92315 42.363633 62.735208 42.733703 63.636719 43.013672 L 63.818359 47.076172 L 65.65625 43.4375 C 66.045702 43.478811 66.445953 43.505859 66.867188 43.505859 C 68.839928 43.505859 70.357276 42.658359 71.271484 41.439453 C 72.185692 40.220547 72.562764 38.719208 72.716797 37.28125 C 72.96748 34.941032 72.655527 33.049822 72.513672 32.285156 C 72.787885 32.131825 72.89362 32.166223 73.201172 31.826172 C 73.849328 31.109525 74.285076 29.769624 73.701172 28.25 C 73.245682 27.067065 72.154448 26.532631 70.902344 25.96875 C 69.650239 25.404869 68.144375 24.927881 66.675781 24.527344 C 64.010821 23.800515 61.924185 23.442924 61.474609 23.363281 C 61.219315 22.670227 60.638158 21.36712 58.869141 19.970703 C 56.532223 18.126002 52.426612 16.554053 45.457031 17.140625 C 42.183638 17.416119 40.006317 16.99211 38.585938 16.294922 C 37.165557 15.597733 36.453814 14.647533 36.046875 13.626953 C 35.232994 11.585837 35.841797 9.2734375 35.841797 9.2734375 A 1.0001 1.0001 0 0 0 34.826172 8.0019531 z M 33.650391 11.332031 C 33.659491 12.255331 33.756942 13.287371 34.1875 14.367188 C 34.748436 15.773983 35.853114 17.180813 37.705078 18.089844 C 39.557042 18.998874 42.107893 19.430771 45.625 19.134766 C 52.236419 18.578337 55.747027 20.053967 57.630859 21.541016 C 59.514692 23.028064 59.798828 24.453125 59.798828 24.453125 A 1.0001 1.0001 0 0 0 60.603516 25.214844 C 60.603516 25.214844 63.328327 25.687355 66.150391 26.457031 C 66.422888 26.531351 66.685472 26.61951 66.957031 26.699219 C 67.717128 27.175096 68.524735 27.83229 69.234375 28.765625 C 69.933859 29.684677 70.322009 30.591169 70.564453 31.355469 A 1.0001 1.0001 0 0 0 70.458984 32.054688 C 70.458984 32.054688 70.989497 34.613774 70.726562 37.068359 C 70.595096 38.295652 70.256917 39.460203 69.671875 40.240234 C 69.086833 41.020266 68.321447 41.505859 66.867188 41.505859 C 63.736461 41.505859 61.900204 40.181251 60.220703 38.708984 C 59.380953 37.972851 58.605035 37.196682 57.740234 36.560547 C 56.875434 35.924412 55.866602 35.414063 54.681641 35.414062 C 52.399359 35.414062 50.626094 36.98386 49.449219 38.736328 C 48.272344 40.488796 47.589844 42.458464 47.589844 44.029297 C 47.589844 45.343699 47.720833 47.337688 48.447266 49.140625 C 48.810482 50.042093 49.332317 50.908024 50.113281 51.568359 C 50.894245 52.228695 51.944388 52.646484 53.158203 52.646484 C 55.204727 52.646484 58.15955 52.510347 60.755859 52.806641 C 62.054014 52.954788 63.255742 53.215056 64.167969 53.609375 C 65.080196 54.003694 65.667817 54.498045 65.962891 55.121094 C 66.223607 55.670955 66.153417 56.342539 65.736328 57.214844 C 65.319239 58.087149 64.564591 59.060029 63.738281 59.931641 C 62.798453 60.922994 62.426226 61.126883 61.724609 61.685547 C 61.708499 61.601127 61.743726 61.609377 61.722656 61.523438 C 61.393323 60.177507 60.202419 58.607262 57.869141 58.273438 C 55.885346 57.989612 53.876409 57.650861 52.146484 57.550781 C 51.281522 57.500741 50.484408 57.506909 49.759766 57.636719 C 49.035123 57.766527 48.33405 58.024022 47.830078 58.611328 A 1.0001 1.0001 0 0 0 47.724609 58.761719 C 47.038671 59.945086 46.899297 61.405095 46.947266 62.953125 C 46.995236 64.501155 47.263055 66.149704 47.591797 67.675781 C 48.005736 69.597361 48.258505 70.199882 48.585938 71.220703 C 46.981888 70.523974 45.007387 69.436575 43.25 67.074219 C 41.968718 65.352411 41.357356 63.649014 41.044922 62.455078 A 1.0001 1.0001 0 0 0 39.132812 62.265625 A 1.0002445 1.0002445 0 0 0 39.132812 62.267578 A 1.0001 1.0001 0 0 0 39.105469 62.34375 A 1.0002445 1.0002445 0 0 0 39.099609 62.361328 C 38.661261 63.738012 37.874516 65.678813 36.421875 67.712891 C 35.203096 69.41948 33.950597 70.556152 32.855469 71.433594 C 32.41528 70.671273 31.959056 69.935661 31.589844 68.900391 L 31.589844 68.898438 C 30.567767 66.027608 30.562871 63.473143 30.701172 61.859375 A 1.0001 1.0001 0 0 0 30.40625 60.976562 A 1.0001 1.0001 0 0 0 30.25 60.851562 A 1.0001 1.0001 0 0 0 30.162109 60.802734 A 1.0001 1.0001 0 0 0 28.943359 61.048828 C 27.634177 62.366892 25.583375 64.117283 22.683594 65.511719 L 22.683594 65.509766 C 21.081419 66.279652 19.729146 66.607837 18.4375 66.925781 C 18.36781 65.46361 18.42162 63.508767 19.34375 61.125 C 20.360933 58.497044 21.902456 56.777311 22.84375 55.869141 A 1.0001 1.0001 0 0 0 23.115234 54.736328 A 1.0001 1.0001 0 0 0 23.115234 54.734375 A 1.0001 1.0001 0 0 0 23.072266 54.646484 A 1.0001 1.0001 0 0 0 23.021484 54.560547 A 1.0001 1.0001 0 0 0 22.974609 54.494141 A 1.0001 1.0001 0 0 0 22.970703 54.490234 A 1.0001 1.0001 0 0 0 22.908203 54.417969 A 1.0001 1.0001 0 0 0 22.845703 54.359375 A 1.0001 1.0001 0 0 0 22.832031 54.347656 A 1.0001 1.0001 0 0 0 22.822266 54.337891 A 1.0001 1.0001 0 0 0 22.755859 54.289062 A 1.0001 1.0001 0 0 0 22.671875 54.236328 A 1.0001 1.0001 0 0 0 21.800781 54.185547 C 19.067392 55.182627 16.583984 55.060547 16.583984 55.060547 C 14.160575 54.927693 12.417205 54.09668 11.074219 53.300781 C 11.833234 52.961195 12.482091 52.794397 13.351562 52.162109 C 14.808528 51.103087 15.787179 49.95559 16.396484 49.119141 A 1.0001 1.0001 0 0 0 16.107422 47.675781 C 15.204881 47.127643 13.760753 46.066974 12.683594 44.253906 C 11.137425 41.651407 11.248757 39.326035 11.519531 37.625 C 11.98497 38.088864 12.493546 38.561942 13.142578 39.003906 C 15.953248 40.917799 18.750381 41.052993 20.0625 41.035156 A 1.0001 1.0001 0 0 0 21.203125 40.507812 A 1.0001 1.0001 0 0 0 21.205078 40.501953 A 1.0001 1.0001 0 0 0 21.242188 40.416016 A 1.0001 1.0001 0 0 0 21.244141 40.410156 A 1.0001 1.0001 0 0 0 21.273438 40.322266 A 1.0001 1.0001 0 0 0 21.275391 40.314453 A 1.0001 1.0001 0 0 0 21.292969 40.224609 A 1.0001 1.0001 0 0 0 21.294922 40.216797 A 1.0001 1.0001 0 0 0 21.304688 40.125 A 1.0001 1.0001 0 0 0 20.890625 39.246094 C 19.764954 38.343552 17.640456 36.369244 16.535156 33.144531 C 15.063523 28.850151 16.177811 25.536493 17.208984 23.298828 C 17.34529 23.736579 17.286464 24.000195 17.501953 24.472656 C 18.086237 25.754505 18.787992 26.621836 19.371094 27.279297 A 1.0001 1.0001 0 0 0 20.630859 27.835938 A 1.0001 1.0001 0 0 0 20.644531 27.832031 A 1.0001 1.0001 0 0 0 20.736328 27.792969 A 1.0001 1.0001 0 0 0 21.294922 26.773438 C 21.224792 25.032621 21.327922 22.517837 22.193359 19.640625 C 22.924295 17.212283 23.943807 15.416539 24.951172 13.921875 C 24.974772 14.240763 24.901912 14.454292 24.951172 14.791016 C 25.543651 18.843488 27.750501 21.547537 28.894531 22.763672 C 25.856383 23.687064 23.677734 24.894531 23.677734 24.894531 A 1.0001 1.0001 0 0 0 23.384766 26.289062 C 24.384353 27.797935 26.941132 31.205335 31.611328 33.095703 C 34.098308 34.10302 36.353104 34.340722 37.908203 34.367188 A 1.0001545 1.0001545 0 0 0 37.943359 32.367188 C 36.560459 32.343657 34.562302 32.130917 32.363281 31.240234 A 1.0001 1.0001 0 0 0 32.361328 31.240234 C 28.844237 29.816612 26.898116 27.568393 25.775391 26.048828 C 26.804702 25.48315 28.71133 24.529935 31.677734 23.992188 A 1.0001 1.0001 0 0 0 32.150391 22.25 C 31.624381 21.798927 31.310547 21.331316 31.310547 19.660156 C 31.310547 15.389588 32.392661 12.963447 33.400391 11.591797 C 33.497591 11.459493 33.557025 11.444875 33.650391 11.332031 z M 48.587891 22.707031 C 48.587891 22.707031 53.838688 25.755859 54.679688 25.755859 C 55.520688 25.755859 56.201172 25.074422 56.201172 24.232422 C 56.201172 23.391422 55.521688 22.708984 54.679688 22.708984 C 53.840688 22.707984 48.587891 22.707031 48.587891 22.707031 z M 34.410156 25.787109 C 32.584171 25.801094 30.974672 26.317297 30.310547 26.724609 C 33.935547 32.677609 40.970703 29.521531 40.970703 29.519531 C 39.462078 26.581031 36.757851 25.769129 34.410156 25.787109 z M 21.234375 28.705078 L 20.433594 29.107422 L 20.275391 29.990234 L 20.888672 30.644531 L 21.234375 30.705078 L 22.035156 30.304688 L 22.193359 29.421875 L 21.582031 28.767578 L 21.234375 28.705078 z M 22.957031 32.275391 L 22.15625 32.675781 L 21.998047 33.558594 L 22.609375 34.212891 L 22.957031 34.275391 L 23.757812 33.873047 L 23.916016 32.990234 L 23.304688 32.335938 L 22.957031 32.275391 z M 26.179688 34.568359 L 25.378906 34.970703 L 25.220703 35.851562 L 25.833984 36.505859 L 26.179688 36.568359 L 26.980469 36.167969 L 27.138672 35.285156 L 26.527344 34.630859 L 26.179688 34.568359 z M 34.042969 35.355469 L 33.242188 35.755859 L 33.083984 36.638672 L 33.695312 37.292969 L 34.042969 37.355469 L 34.84375 36.953125 L 35.001953 36.072266 L 34.390625 35.416016 L 34.042969 35.355469 z M 30.060547 35.498047 L 29.259766 35.898438 L 29.101562 36.78125 L 29.712891 37.435547 L 30.060547 37.498047 L 30.861328 37.095703 L 31.019531 36.214844 L 30.40625 35.560547 L 30.060547 35.498047 z M 34.511719 38.675781 L 33.710938 39.076172 L 33.552734 39.958984 L 34.164062 40.613281 L 34.511719 40.675781 L 35.3125 40.273438 L 35.470703 39.392578 L 34.857422 38.738281 L 34.511719 38.675781 z M 23.117188 40 L 22.316406 40.402344 L 22.158203 41.283203 L 22.771484 41.9375 L 23.117188 42 L 23.919922 41.597656 L 24.076172 40.716797 L 23.464844 40.0625 L 23.117188 40 z M 30.941406 40.439453 L 30.140625 40.841797 L 29.982422 41.724609 L 30.59375 42.378906 L 30.941406 42.439453 L 31.742188 42.039062 L 31.900391 41.15625 L 31.289062 40.501953 L 30.941406 40.439453 z M 26.994141 40.900391 L 26.191406 41.302734 L 26.035156 42.183594 L 26.646484 42.837891 L 26.994141 42.900391 L 27.794922 42.5 L 27.953125 41.617188 L 27.339844 40.962891 L 26.994141 40.900391 z M 36.482422 41.496094 L 35.681641 41.898438 L 35.523438 42.779297 L 36.134766 43.433594 L 36.482422 43.496094 L 37.283203 43.095703 L 37.441406 42.212891 L 36.830078 41.558594 L 36.482422 41.496094 z M 34.298828 44.84375 L 33.498047 45.244141 L 33.339844 46.126953 L 33.951172 46.78125 L 34.298828 46.84375 L 35.099609 46.441406 L 35.257812 45.558594 L 34.646484 44.904297 L 34.298828 44.84375 z M 26.199219 46.296875 L 25.398438 46.699219 L 25.240234 47.580078 L 25.853516 48.234375 L 26.199219 48.296875 L 27.001953 47.896484 L 27.158203 47.013672 L 26.546875 46.359375 L 26.199219 46.296875 z M 22.396484 47.488281 L 21.595703 47.888672 L 21.4375 48.771484 L 22.050781 49.425781 L 22.396484 49.488281 L 23.197266 49.085938 L 23.355469 48.205078 L 22.744141 47.550781 L 22.396484 47.488281 z M 18.412109 47.529297 L 17.611328 47.929688 L 17.453125 48.8125 L 18.064453 49.466797 L 18.412109 49.529297 L 19.212891 49.126953 L 19.371094 48.246094 L 18.759766 47.591797 L 18.412109 47.529297 z M 31.609375 47.796875 L 30.808594 48.199219 L 30.650391 49.080078 L 31.261719 49.734375 L 31.609375 49.796875 L 32.410156 49.396484 L 32.568359 48.513672 L 31.957031 47.859375 L 31.609375 47.796875 z M 37.578125 48.134766 L 36.777344 48.537109 L 36.619141 49.417969 L 37.230469 50.072266 L 37.578125 50.134766 L 38.378906 49.734375 L 38.537109 48.851562 L 37.925781 48.197266 L 37.578125 48.134766 z M 28.494141 50.296875 L 27.691406 50.697266 L 27.535156 51.580078 L 28.146484 52.234375 L 28.494141 52.296875 L 29.294922 51.894531 L 29.453125 51.013672 L 28.839844 50.359375 L 28.494141 50.296875 z M 34.960938 51.158203 L 34.160156 51.560547 L 34.001953 52.441406 L 34.615234 53.095703 L 34.960938 53.158203 L 35.761719 52.757812 L 35.919922 51.875 L 35.308594 51.220703 L 34.960938 51.158203 z M 25 52.234375 L 24.199219 52.636719 L 24.041016 53.517578 L 24.652344 54.173828 L 25 54.234375 L 25.800781 53.833984 L 25.958984 52.951172 L 25.347656 52.296875 L 25 52.234375 z M 41 52.234375 L 40.199219 52.636719 L 40.041016 53.517578 L 40.652344 54.173828 L 41 54.234375 L 41.800781 53.833984 L 41.958984 52.951172 L 41.347656 52.296875 L 41 52.234375 z M 32.644531 54.417969 L 31.84375 54.818359 L 31.685547 55.701172 L 32.296875 56.355469 L 32.644531 56.417969 L 33.445312 56.015625 L 33.603516 55.134766 L 32.990234 54.478516 L 32.644531 54.417969 z M 39.931641 56.066406 L 39.130859 56.466797 L 38.972656 57.349609 L 39.585938 58.003906 L 39.931641 58.066406 L 40.732422 57.664062 L 40.890625 56.783203 L 40.279297 56.126953 L 39.931641 56.066406 z M 30.646484 57.882812 L 29.845703 58.283203 L 29.6875 59.166016 L 30.300781 59.820312 L 30.646484 59.882812 L 31.447266 59.480469 L 31.605469 58.597656 L 30.994141 57.943359 L 30.646484 57.882812 z"/></svg>